<?xml version="1.0" encoding="iso-8859-1"?>
<!-- Uploaded to: SVG Repo, www.svgrepo.com, Generator: SVG Repo Mixer Tools -->
<svg fill="#ffffff" height="800px" width="800px" version="1.1" id="Layer_1" xmlns="http://www.w3.org/2000/svg" xmlns:xlink="http://www.w3.org/1999/xlink"
	 viewBox="0 0 512.004 512.004" xml:space="preserve">
<g>
	<g>
		<g>
			<path d="M509.502,352.37c-83.115-83.115-151.031-243.004-151.765-244.736c-0.017-0.043-0.043-0.068-0.06-0.094
				c-0.393-0.905-0.947-1.672-1.596-2.372c-0.196-0.213-0.418-0.384-0.64-0.572c-0.546-0.486-1.143-0.887-1.792-1.212
				c-0.264-0.128-0.503-0.273-0.776-0.375c-0.93-0.35-1.894-0.597-2.918-0.606c-0.026,0-0.043,0.008-0.06,0h-0.026
				c-0.017,0-0.043,0.008-0.06,0.008c-2.219-0.162-4.267,0.828-5.828,2.389c-0.068,0.068-0.137,0.12-0.205,0.188
				c-0.683,0.734-1.289,1.545-1.707,2.483c0,0.009-0.043,0.111-0.06,0.137v0.009c-1.766,3.934-69.205,153.651-151.774,236.22
				c-2.176,2.176-3.012,5.35-2.193,8.311s3.174,5.257,6.153,5.999c60.894,15.224,61.798,90.914,61.807,94.131
				c0.009,4.71,3.831,8.516,8.533,8.516h0.009c4.71-0.009,8.525-3.814,8.525-8.525c0-0.862-0.751-80.742-61.261-106.214
				c57.506-61.568,105.549-149.53,129.527-197.461v159.471c-19.448,3.968-34.133,21.197-34.133,41.805
				c0,23.526,19.14,42.667,42.667,42.667s42.667-19.14,42.667-42.667c0-20.608-14.686-37.837-34.133-41.805V150.377
				c24.004,50.372,72.03,142.191,129.476,204.126c-60.467,24.525-61.21,96.99-61.21,97.766c0,4.71,3.814,8.516,8.516,8.525h0.009
				c4.71,0,8.525-3.806,8.542-8.508c0.008-2.867,0.964-70.4,61.807-85.606c2.978-0.742,5.333-3.038,6.153-5.999
				C512.514,357.72,511.678,354.546,509.502,352.37z M375.469,349.87c0,14.114-11.486,25.6-25.6,25.6s-25.6-11.486-25.6-25.6
				s11.486-25.6,25.6-25.6S375.469,335.756,375.469,349.87z"/>
			<path d="M452.269,477.87h-204.8c-4.71,0-8.533,3.823-8.533,8.533v17.067c0,4.71,3.823,8.533,8.533,8.533s8.533-3.823,8.533-8.533
				v-8.533h187.733v8.533c0,4.71,3.823,8.533,8.533,8.533c4.71,0,8.533-3.823,8.533-8.533v-17.067
				C460.802,481.693,456.979,477.87,452.269,477.87z"/>
			<path d="M312.288,51.288l31.548,31.548c1.664,1.664,3.849,2.5,6.033,2.5c2.185,0,4.369-0.836,6.033-2.5l34.133-34.133
				c3.337-3.336,3.337-8.73,0-12.066L355.902,2.503c-3.336-3.336-8.73-3.336-12.066,0l-31.633,31.633H49.632
				c-3.541-9.916-12.919-17.067-24.03-17.067c-14.114,0-25.6,11.486-25.6,25.6s11.486,25.6,25.6,25.6
				c11.11,0,20.489-7.151,24.03-17.067h169.523C112.386,90.303,35.748,192.319,34.229,312.11L2.502,343.837
				c-3.336,3.337-3.336,8.73,0,12.066l34.133,34.133c1.664,1.664,3.849,2.5,6.033,2.5c2.185,0,4.369-0.836,6.033-2.5l34.133-34.133
				c3.337-3.336,3.337-8.73,0-12.066l-31.548-31.548C53.139,169.168,169.167,53.14,312.288,51.288z M349.869,20.603l22.067,22.067
				l-22.067,22.067L327.802,42.67L349.869,20.603z M25.602,51.203c-4.702,0-8.533-3.831-8.533-8.533
				c0-4.702,3.831-8.533,8.533-8.533c4.702,0,8.533,3.831,8.533,8.533C34.135,47.372,30.304,51.203,25.602,51.203z M64.736,349.87
				l-22.067,22.067L20.602,349.87l22.067-22.067L64.736,349.87z"/>
		</g>
	</g>
</g>
</svg>